<svg
	xmlns="http://www.w3.org/2000/svg"
	xmlns:xlink="http://www.w3.org/1999/xlink"
>
	<defs>
		<symbol
		height="18"
		viewBox="0 0 256 256"
		width="18" id="home">

			<path d="M83.19,174.4a8,8,0,0,0,11.21-1.6,52,52,0,0,1,83.2,0,8,8,0,1,0,12.8-9.6A67.88,67.88,0,0,0,163,141.51a40,40,0,1,0-53.94,0A67.88,67.88,0,0,0,81.6,163.2,8,8,0,0,0,83.19,174.4ZM112,112a24,24,0,1,1,24,24A24,24,0,0,1,112,112Zm96-88H64A16,16,0,0,0,48,40V64H32a8,8,0,0,0,0,16H48v40H32a8,8,0,0,0,0,16H48v40H32a8,8,0,0,0,0,16H48v24a16,16,0,0,0,16,16H208a16,16,0,0,0,16-16V40A16,16,0,0,0,208,24Zm0,192H64V40H208Z" />
		</symbol>

		<symbol
		height="18"
		viewBox="0 0 256 256"
		width="18" id="design">

		<path d="M229.11,62.82A16,16,0,0,0,216,56H136V24h16a8,8,0,0,0,0-16H104a8,8,0,0,0,0,16h16V56H40A16,16,0,0,0,25,77.47l26.19,72a16,16,0,0,0,15,10.53H96v64a8,8,0,0,0,16,0V160h32v64a8,8,0,0,0,16,0V160h29.82a16,16,0,0,0,15-10.53l26.19-72A16,16,0,0,0,229.11,62.82ZM110.68,144,97.58,72h60.84l-13.1,72ZM40,72H81.32l13.09,72H66.18Zm149.82,72H161.59l13.09-72H216Z"></path>
		</symbol>

		<symbol
		height="18"
		viewBox="0 0 256 256"
		width="18" id="inspiration">

			<path d="M235.58,128.84,160,91.06V48a32,32,0,0,0-64,0V91.06L20.42,128.84A8,8,0,0,0,16,136v32a8,8,0,0,0,9.57,7.84L96,161.76v18.93L82.34,194.34A8,8,0,0,0,80,200v32a8,8,0,0,0,11,7.43l37-14.81,37,14.81A8,8,0,0,0,176,232V200a8,8,0,0,0-2.34-5.66L160,180.69V161.76l70.43,14.08A8,8,0,0,0,240,168V136A8,8,0,0,0,235.58,128.84ZM224,158.24l-70.43-14.08A8,8,0,0,0,144,152v32a8,8,0,0,0,2.34,5.66L160,203.31v16.87l-29-11.61a8,8,0,0,0-5.94,0L96,220.18V203.31l13.66-13.65A8,8,0,0,0,112,184V152a8,8,0,0,0-9.57-7.84L32,158.24v-17.3l75.58-37.78A8,8,0,0,0,112,96V48a16,16,0,0,1,32,0V96a8,8,0,0,0,4.42,7.16L224,140.94Z"></path>
		</symbol>

		<symbol
		height="18"
		viewBox="0 0 256 256"
		width="18" id="open-src">

<path d="M224,216a8,8,0,0,1-8,8H72a8,8,0,1,1,0-16H216A8,8,0,0,1,224,216Zm24-80v24a8,8,0,0,1-8,8H61.07a39.75,39.75,0,0,1-38.31-28.51L8.69,92.6A16,16,0,0,1,24,72h8a8,8,0,0,1,5.65,2.34L59.32,96H81.81l-9-26.94A16,16,0,0,1,88,48h8a8,8,0,0,1,5.66,2.34L147.32,96H208A40,40,0,0,1,248,136Zm-16,0a24,24,0,0,0-24-24H144a8,8,0,0,1-5.65-2.34L92.69,64H88l12.49,37.47A8,8,0,0,1,92.91,112H56a8,8,0,0,1-5.66-2.34L28.69,88H24l14.07,46.9a23.85,23.85,0,0,0,23,17.1H232Z"></path>
		</symbol>

		<symbol
		height="18"
		viewBox="0 0 256 256"
		width="18" id="file">

<path d="M248,216a8,8,0,0,1-8,8H96a8,8,0,0,1,0-16H240A8,8,0,0,1,248,216Zm-26.16-24.3L45.21,142.24A40.12,40.12,0,0,1,16,103.72V48A16,16,0,0,1,37.06,32.82l5.47,1.82a8,8,0,0,1,5,4.87L58.13,68.88,88,77.39V48a16,16,0,0,1,21.06-15.18l5.47,1.82a8,8,0,0,1,4.85,4.5l22.5,53.63,60.84,17A40.13,40.13,0,0,1,232,148.32V184a8,8,0,0,1-10.16,7.7ZM216,148.32a24.09,24.09,0,0,0-17.58-23.13l-64.57-18a8,8,0,0,1-5.23-4.61L106,48.67,104,48V88a8,8,0,0,1-10.19,7.7l-44-12.54a8,8,0,0,1-5.33-5L33.79,48.59,32,48v55.72a24.09,24.09,0,0,0,17.53,23.12L216,173.45Z"></path>
		</symbol>

		<symbol
		height="18"
		viewBox="0 0 256 256"
		width="18" id="code">

<path d="M176,216a8,8,0,0,1-8,8H24a8,8,0,0,1,0-16H168A8,8,0,0,1,176,216ZM247.86,93.15a8,8,0,0,1-3.76,5.39l-147.41,88a40.18,40.18,0,0,1-20.26,5.52,39.78,39.78,0,0,1-27.28-10.87l-.12-.12L13,145.8a16,16,0,0,1,4.49-26.21l3-1.47a8,8,0,0,1,6.08-.4l28.26,9.54L75,115.06,53.17,93.87A16,16,0,0,1,57.7,67.4l.32-.13,7.15-2.71a8,8,0,0,1,5.59,0L124.7,84.38,176.27,53.6a39.82,39.82,0,0,1,51.28,9.12l.12.15,18.64,23.89A8,8,0,0,1,247.86,93.15Zm-19.74-3.7-13-16.67a23.88,23.88,0,0,0-30.68-5.42l-54.8,32.72a8.06,8.06,0,0,1-6.87.64L68,80.58l-4,1.53.21.2L93.57,110.8a8,8,0,0,1-1.43,12.58L59.93,142.87a8,8,0,0,1-6.7.73l-28.67-9.67-.19.1-.37.17a.71.71,0,0,1,.13.12l36,35.26a23.85,23.85,0,0,0,28.42,3.18Z"></path>
		</symbol>

		<symbol
		height="18"
		viewBox="0 0 256 256"
		width="18" id="card">

<path d="M185.33,114.21l29.14-27.42.17-.17a32,32,0,0,0-45.26-45.26c0,.06-.11.11-.17.17L141.79,70.67l-83-30.2a8,8,0,0,0-8.39,1.86l-24,24a8,8,0,0,0,1.22,12.31l63.89,42.59L76.69,136H56a8,8,0,0,0-5.65,2.34l-24,24A8,8,0,0,0,29,175.42l36.82,14.73,14.7,36.75.06.16a8,8,0,0,0,13.18,2.47l23.87-23.88A8,8,0,0,0,120,200V179.31l14.76-14.76,42.59,63.89a8,8,0,0,0,12.31,1.22l24-24a8,8,0,0,0,1.86-8.39Zm-.07,97.23-42.59-63.88A8,8,0,0,0,136.8,144c-.27,0-.53,0-.79,0a8,8,0,0,0-5.66,2.35l-24,24A8,8,0,0,0,104,176v20.69L90.93,209.76,79.43,181A8,8,0,0,0,75,176.57l-28.74-11.5L59.32,152H80a8,8,0,0,0,5.66-2.34l24-24a8,8,0,0,0-1.22-12.32L44.56,70.74l13.5-13.49,83.22,30.26a8,8,0,0,0,8.56-2L180.78,52.6A16,16,0,0,1,203.4,75.23l-32.87,30.93a8,8,0,0,0-2,8.56l30.26,83.22Z"></path>
		</symbol>
	</defs>
</svg>
