<svg preserveAspectRatio="none" width="100%" height="100%" overflow="visible" style="display: block;" viewBox="0 0 16 16" fill="none" xmlns="http://www.w3.org/2000/svg">
<g id="Frame" clip-path="url(#clip0_24677_5808)">
<path id="Vector" d="M7.99974 11.9991C10.2089 11.9991 11.9997 10.2082 11.9997 7.99909C11.9997 5.78995 10.2089 3.99909 7.99974 3.99909C5.7906 3.99909 3.99974 5.78995 3.99974 7.99909C3.99974 10.2082 5.7906 11.9991 7.99974 11.9991Z" fill="var(--fill-0, white)"/>
<path id="Vector_2" d="M4.53564 10.0001L1.0721 4.00104C0.369806 5.21704 4.84517e-05 6.59652 4.76137e-09 8.00076C-4.84422e-05 9.405 0.369615 10.7845 1.07182 12.0006C1.77403 13.2166 2.78403 14.2264 4.00025 14.9283C5.21648 15.6302 6.59606 15.9995 8.00031 15.9991L11.4638 10.0001V9.99904C11.113 10.6074 10.6082 11.1126 10.0002 11.464C9.39213 11.8153 8.7023 12.0003 8.00005 12.0004C7.2978 12.0005 6.6079 11.8157 5.99975 11.4645C5.39162 11.1134 4.88663 10.6083 4.53564 10.0001Z" fill="url(#paint0_linear_24677_5808)"/>
<path id="Vector_3" d="M11.4637 9.99976L8.00015 15.9988C9.40439 15.999 10.7839 15.6295 12 14.9274C13.2162 14.2253 14.226 13.2154 14.9281 11.9993C15.6301 10.7831 15.9996 9.40355 15.9993 7.99931C15.9991 6.59507 15.6291 5.21566 14.9266 3.99974H7.99956L7.9987 4.00027C8.70095 3.99992 9.3909 4.1845 9.99918 4.53541C10.6075 4.88634 11.1126 5.39123 11.4638 5.99936C11.815 6.60746 11.9999 7.29734 11.9999 7.99956C11.9999 8.70181 11.8149 9.39166 11.4637 9.99976Z" fill="url(#paint1_linear_24677_5808)"/>
<path id="Vector_4" d="M7.99973 11.1667C9.74863 11.1667 11.1664 9.74891 11.1664 8.00001C11.1664 6.25111 9.74863 4.83333 7.99973 4.83333C6.25083 4.83333 4.83307 6.25111 4.83307 8.00001C4.83307 9.74891 6.25083 11.1667 7.99973 11.1667Z" fill="var(--fill-0, #1A73E8)"/>
<path id="Vector_5" d="M7.9998 4H14.9269C14.2249 2.7838 13.2151 1.77383 11.9991 1.07167C10.783 0.369514 9.40345 -9.96446e-05 7.99921 2.01503e-08C6.59497 9.96849e-05 5.21552 0.369907 3.99954 1.07224C2.78354 1.77457 1.77391 2.78469 1.07214 4.00097L4.53567 10L4.53656 10.0005C4.18514 9.39248 4 8.70271 3.99977 8.00046C3.99954 7.29821 4.18425 6.60828 4.53529 6.00008C4.8863 5.39187 5.39131 4.88681 5.99947 4.53572C6.60764 4.18461 7.29755 3.99985 7.9998 4Z" fill="url(#paint2_linear_24677_5808)"/>
</g>
<defs>
<linearGradient id="paint0_linear_24677_5808" x1="8.8657" y1="15.4995" x2="1.93835" y2="3.50093" gradientUnits="userSpaceOnUse">
<stop stop-color="#1E8E3E"/>
<stop offset="1" stop-color="#34A853"/>
</linearGradient>
<linearGradient id="paint1_linear_24677_5808" x1="6.83291" y1="16.02" x2="13.7603" y2="4.02145" gradientUnits="userSpaceOnUse">
<stop stop-color="#FCC934"/>
<stop offset="1" stop-color="#FBBC04"/>
</linearGradient>
<linearGradient id="paint2_linear_24677_5808" x1="1.07214" y1="5.00023" x2="14.9269" y2="5.00023" gradientUnits="userSpaceOnUse">
<stop stop-color="#D93025"/>
<stop offset="1" stop-color="#EA4335"/>
</linearGradient>
<clipPath id="clip0_24677_5808">
<rect width="16" height="16" fill="white"/>
</clipPath>
</defs>
</svg>
