<svg width="48" height="48" viewBox="0 0 48 48" fill="none" xmlns="http://www.w3.org/2000/svg">
<path d="M1.85968 20.4297H33.227L25.8426 6.37988C18.9758 6.38824 11.475 6.83811 10.486 7.40541C8.88502 8.34753 3.18786 17.2265 1.85968 20.4297Z" fill="black"/>
<path d="M1.84912 22.0827C4.18556 26.3821 20.095 40.9701 23.7561 41.6199L33.2731 22.0827H1.84912Z" fill="black"/>
<path d="M25.9882 40.8077C31.367 37.5966 43.946 26.0219 46.1136 22.0827H35.1097L25.9882 40.8077Z" fill="black"/>
<path d="M46.1508 20.4297C45.3029 18.2976 42.441 13.7275 40.1247 10.5539L35.8511 20.4297H46.1508Z" fill="black"/>
<path d="M38.9788 9.04463C38.374 8.28557 37.8555 7.70629 37.4892 7.40541C36.6756 6.74183 32.5284 6.44332 27.7127 6.389L34.5218 19.3444L38.9788 9.04463Z" fill="black"/>
</svg>
